# xmcd
#
# Track frame offsets:
#	150
#	16509
#	29775
#	38043
#	48536
#	62948
#	71640
#	86389
#	100761
#	113398
#
# Disc length: 1664 seconds
#
# Revision: 1
# Processed by: cddbd v1.5.2PL0 Copyright (c) Steve Scherf et al.
# Submitted via: audiograbber 1.83.01
#
DISCID=78067e0a
DTITLE=Don Bouvette - Paint Me A Picture
DYEAR=1900
DGENRE=Country
TTITLE0=Paint Me A Picture
TTITLE1=Sweet Alberta Sunshine
TTITLE2=Rodeo Riders
TTITLE3=Country SIngers and Cowboys
TTITLE4=Strong Feelings
TTITLE5=Honky Tonk Texas Style
TTITLE6=Take My Hand Today
TTITLE7=Just An Old Love Story
TTITLE8=Let's Make More Than A Memory
TTITLE9=Major Reason
EXTD=
EXTT0=
EXTT1=
EXTT2=
EXTT3=
EXTT4=
EXTT5=
EXTT6=
EXTT7=
EXTT8=
EXTT9=
PLAYORDER=
